# xmcd CD database file
#
# Track frame offsets:
#	150
#	17795
#	35650
#
# Disc length: 707 seconds
#
# Revision: 0
# Processed by: cddbd v1.5.1PL0 Copyright (c) Steve Scherf et al.
# Submitted via: CDex 1.51
#
DISCID=1e02c103
DTITLE=谷口宗一 - 空を見上げる涙は…
DYEAR=1993
DGENRE=JPop
TTITLE0=空を見上げる涙は…
TTITLE1=週末のGOAL
TTITLE2=空を見上げる涙は…(カラオケ)
EXTD=YEAR: 1993
EXTT0=
EXTT1=
EXTT2=
PLAYORDER=
